<svg version="1.1" id="Layer_1" xmlns="http://www.w3.org/2000/svg" xmlns:xlink="http://www.w3.org/1999/xlink" x="0px" y="0px"
	 width="100%" viewBox="0 0 150 150" enable-background="new 0 0 150 150" xml:space="preserve">
<path fill="#FAE72A" opacity="1.000000" stroke="none" 
	d="
M0.999999,81.000000 
	C1.000000,73.312424 1.000000,65.624847 1.414963,57.492302 
	C2.310714,56.700649 3.178517,56.390900 3.215645,56.001877 
	C4.124941,46.474167 9.929713,39.286285 15.200226,32.067249 
	C26.030069,17.233578 40.419830,7.325385 58.441563,2.956824 
	C59.396385,2.725371 60.151768,1.671178 61.000000,0.999999 
	C67.354401,1.000000 73.708794,1.000000 80.664520,1.348639 
	C87.130508,2.899128 92.995155,4.100977 99.209106,5.134452 
	C120.511345,13.135618 136.690994,26.369093 145.036682,48.292404 
	C146.603378,55.822815 148.209702,62.932308 149.852905,70.495285 
	C149.878845,74.316414 149.867889,77.684074 149.640732,81.367432 
	C148.958572,85.813133 148.492615,89.943138 148.017639,94.039803 
	C148.008621,94.006462 148.076645,93.994476 147.752808,94.190063 
	C146.966736,96.600166 146.504517,98.814674 145.919006,101.377159 
	C143.094574,107.148232 141.044861,113.046425 137.525040,117.872414 
	C133.265228,123.713028 127.761627,128.646500 122.448044,133.989685 
	C120.891731,135.170944 119.683655,136.335052 118.439636,137.476898 
	C118.403709,137.454620 118.407578,137.539078 118.080498,137.464035 
	C117.172501,137.945099 116.591576,138.501205 116.010773,139.027130 
	C116.010887,138.996964 116.064453,139.024765 115.752701,139.042938 
	C114.986519,139.450195 114.532089,139.839294 114.086685,140.175476 
	C114.095703,140.122559 114.198494,140.153519 113.810921,140.118576 
	C112.314163,140.384338 111.196899,140.658249 110.097099,140.990067 
	C102.105896,143.401031 94.100418,145.767303 86.141304,148.280304 
	C84.019493,148.950256 82.043137,150.080872 80.000000,151.000000 
	C77.299988,151.000000 74.599968,151.000000 71.311722,150.654144 
	C69.717545,149.871414 68.748802,149.288345 67.699631,149.021423 
	C60.976280,147.311035 54.220440,145.726929 47.507408,143.978012 
	C44.841888,143.283554 42.258396,142.274246 39.725109,141.334137 
	C39.812656,141.259995 39.682499,141.448959 39.610916,141.091736 
	C38.302334,140.197556 37.065338,139.660614 35.877014,139.106186 
	C35.925682,139.088715 35.951332,139.188904 35.792809,138.927551 
	C35.086243,138.439285 34.538197,138.212372 33.998932,137.986420 
	C34.007717,137.987396 34.018658,138.001297 33.877548,137.786911 
	C33.440163,137.412994 33.143894,137.253464 32.519947,137.011841 
	C19.205576,127.103584 9.479455,114.910683 4.975879,98.856400 
	C4.397874,93.265808 3.625893,87.912659 2.694014,82.587494 
	C2.587386,81.978180 1.586334,81.525375 0.999999,81.000000 
M98.020294,65.026901 
	C98.020294,65.026901 98.091072,65.040665 97.476715,65.103676 
	C97.026123,65.479225 96.575531,65.854774 96.127693,66.138145 
	C96.127693,66.138145 96.214958,66.167915 95.557983,66.233864 
	C93.434967,67.813210 94.218094,68.532829 96.705063,68.970810 
	C96.937927,69.123444 97.068306,69.338272 97.420944,70.206367 
	C98.040718,70.378380 98.660500,70.550400 99.108017,70.770988 
	C99.108017,70.770988 99.095657,70.592445 99.539879,71.223778 
	C100.922470,71.411613 102.395218,71.996765 103.669579,71.707619 
	C106.660049,71.029083 107.153488,68.219727 104.072227,66.018257 
	C102.371269,65.618752 100.670311,65.219246 98.712852,64.639008 
	C98.363464,64.587135 98.132004,64.740456 98.020294,65.026901 
M77.911545,39.274349 
	C76.850014,37.552559 75.788490,35.830765 74.726959,34.108974 
	C74.093849,34.433784 73.460732,34.758595 72.827621,35.083408 
	C73.228836,37.071892 73.630051,39.060375 74.012672,41.979874 
	C74.024826,50.996403 74.036972,60.012936 74.032265,69.962906 
	C74.032265,77.491913 74.032265,85.020927 74.032265,92.126869 
	C70.703056,92.474709 68.556160,92.699013 66.409264,92.923325 
	C66.329819,93.688683 66.250374,94.454033 66.170929,95.219391 
	C68.992813,96.125710 71.778046,97.608772 74.645958,97.791077 
	C78.159897,98.014435 79.238716,95.149391 77.124664,91.330719 
	C77.158249,90.920761 77.191833,90.510796 77.621994,89.364799 
	C77.725716,73.908310 77.829445,58.451824 77.956398,42.250603 
	C77.941483,41.505997 77.926575,40.761395 77.911545,39.274349 
M48.030170,102.966911 
	C44.028416,102.940651 40.026665,102.914391 35.795822,102.349373 
	C35.234142,102.250381 34.672466,102.151390 33.404789,102.080704 
	C32.115475,102.593216 30.826159,103.105728 29.536842,103.618240 
	C29.563210,104.089012 29.589575,104.559792 29.615942,105.030563 
	C33.091190,105.341637 36.571934,105.969864 40.040752,105.909775 
	C56.473530,105.625137 72.903053,105.152596 90.144402,104.781502 
	C101.052719,108.491722 111.908417,106.173309 122.773125,104.886581 
	C122.779030,104.256615 122.784935,103.626640 122.790833,102.996674 
	C120.214478,102.899529 117.638115,102.802383 114.315796,102.337662 
	C102.931725,101.576065 91.552086,100.727257 80.158791,100.146797 
	C78.447525,100.059616 76.672310,101.227753 74.525375,101.974213 
	C74.525375,101.974213 74.096603,102.024071 73.414711,101.808456 
	C69.469757,101.552185 65.509315,100.954254 61.584057,101.132278 
	C57.352676,101.324173 53.154243,102.242569 48.030170,102.966911 
M44.875408,71.036736 
	C47.112896,70.850708 49.350380,70.664680 51.587864,70.478645 
	C51.258648,69.127243 50.987659,66.627983 50.590908,66.607857 
	C47.679489,66.460152 44.742897,66.808731 41.034988,67.051994 
	C42.637451,68.758698 43.482933,69.659187 44.875408,71.036736 
z"/>
<path fill="#050401" opacity="1.000000" stroke="none" 
	d="
M145.076309,47.871490 
	C136.690994,26.369093 120.511345,13.135618 99.045181,4.790516 
	C96.503242,4.010273 94.449120,3.473535 92.470993,2.733623 
	C92.143646,2.611179 92.148605,1.600304 92.000000,1.000000 
	C111.594688,1.000000 131.189377,1.000000 151.000000,1.000000 
	C151.000000,21.020376 151.000000,41.041531 150.718170,61.908737 
	C148.649658,57.793694 146.862991,52.832592 145.076309,47.871490 
z"/>
<path fill="#050401" opacity="1.000000" stroke="none" 
	d="
M122.796280,133.972534 
	C127.761627,128.646500 133.265228,123.713028 137.525040,117.872414 
	C141.044861,113.046425 143.094574,107.148232 146.231110,101.172585 
	C147.136551,98.411514 147.606598,96.202995 148.076645,93.994476 
	C148.076645,93.994476 148.008621,94.006462 148.328857,93.844795 
	C149.432724,91.788757 150.216370,89.894379 151.000000,88.000000 
	C151.000000,108.924416 151.000000,129.848831 151.000000,151.000000 
	C131.646362,151.000000 112.291840,151.000000 92.050735,150.751785 
	C92.548126,149.834488 93.915100,149.127167 95.318985,148.502853 
	C101.606407,145.706818 107.904350,142.934448 114.198494,140.153519 
	C114.198494,140.153519 114.095703,140.122559 114.390572,140.133972 
	C115.145111,139.771851 115.604782,139.398315 116.064453,139.024765 
	C116.064453,139.024765 116.010887,138.996964 116.304153,138.996338 
	C117.200806,138.510147 117.804192,138.024612 118.407578,137.539078 
	C118.407578,137.539078 118.403709,137.454620 118.747803,137.375305 
	C120.326683,136.188187 121.561478,135.080353 122.796280,133.972534 
z"/>
<path fill="#040301" opacity="1.000000" stroke="none" 
	d="
M4.734451,99.102142 
	C9.479455,114.910683 19.205576,127.103584 32.619431,137.266098 
	C33.370613,137.735397 33.694633,137.868347 34.018658,138.001297 
	C34.018658,138.001297 34.007717,137.987396 34.157906,138.245239 
	C34.855839,138.731705 35.403584,138.960312 35.951332,139.188904 
	C35.951332,139.188904 35.925682,139.088715 36.055862,139.381897 
	C37.351524,140.266388 38.517010,140.857681 39.682495,141.448959 
	C39.682499,141.448959 39.812656,141.259995 39.938362,141.607651 
	C45.785236,144.325546 51.519829,146.664795 57.201946,149.125244 
	C57.653843,149.320892 57.742527,150.355347 58.000000,151.000000 
	C39.072567,151.000000 20.145136,151.000000 1.000000,151.000000 
	C1.000000,131.979660 1.000000,112.958488 1.203958,93.020706 
	C2.516762,94.436775 3.625606,96.769463 4.734451,99.102142 
z"/>
<path fill="#040301" opacity="1.000000" stroke="none" 
	d="
M60.531342,0.999999 
	C60.151768,1.671178 59.396385,2.725371 58.441563,2.956824 
	C40.419830,7.325385 26.030069,17.233578 15.200226,32.067249 
	C9.929713,39.286285 4.124941,46.474167 3.215645,56.001877 
	C3.178517,56.390900 2.310714,56.700649 1.414963,57.023666 
	C1.000000,38.404011 1.000000,19.808022 1.000000,1.000000 
	C20.687054,1.000000 40.374870,1.000000 60.531342,0.999999 
z"/>
<path fill="#E3DA4F" opacity="1.000000" stroke="none" 
	d="
M58.399998,151.000000 
	C57.742527,150.355347 57.653843,149.320892 57.201946,149.125244 
	C51.519829,146.664795 45.785236,144.325546 39.850815,141.681793 
	C42.258396,142.274246 44.841888,143.283554 47.507408,143.978012 
	C54.220440,145.726929 60.976280,147.311035 67.699631,149.021423 
	C68.748802,149.288345 69.717545,149.871414 70.861740,150.654144 
	C68.629440,151.000000 66.258888,151.000000 63.358150,150.678101 
	C62.481350,150.348709 62.134731,150.341202 61.788109,150.333710 
	C61.858742,150.555801 61.929371,150.777908 62.000000,151.000000 
	C60.933331,151.000000 59.866661,151.000000 58.399998,151.000000 
z"/>
<path fill="#E0D64C" opacity="1.000000" stroke="none" 
	d="
M113.810921,140.118576 
	C107.904350,142.934448 101.606407,145.706818 95.318985,148.502853 
	C93.915100,149.127167 92.548126,149.834488 91.582077,150.751785 
	C90.933327,151.000000 89.866661,151.000000 88.539383,150.719177 
	C87.852524,150.625565 87.426262,150.812775 87.000000,151.000000 
	C84.958336,151.000000 82.916664,151.000000 80.437500,151.000000 
	C82.043137,150.080872 84.019493,148.950256 86.141304,148.280304 
	C94.100418,145.767303 102.105896,143.401031 110.097099,140.990067 
	C111.196899,140.658249 112.314163,140.384338 113.810921,140.118576 
z"/>
<path fill="#EADF4B" opacity="1.000000" stroke="none" 
	d="
M4.975880,98.856400 
	C3.625606,96.769463 2.516762,94.436775 1.203958,92.552048 
	C1.000000,92.250000 1.000000,91.500000 1.283588,90.520981 
	C1.378116,89.861305 1.189057,89.430656 0.999999,89.000000 
	C1.000000,86.629440 1.000000,84.258888 0.999999,81.444168 
	C1.586334,81.525375 2.587386,81.978180 2.694014,82.587494 
	C3.625893,87.912659 4.397874,93.265808 4.975880,98.856400 
z"/>
<path fill="#E4D852" opacity="1.000000" stroke="none" 
	d="
M145.036682,48.292404 
	C146.862991,52.832592 148.649658,57.793694 150.718170,62.377396 
	C151.000000,63.388889 151.000000,64.777779 150.696259,66.752716 
	C150.200348,68.239777 150.008179,69.140785 149.816025,70.041801 
	C148.209702,62.932308 146.603378,55.822815 145.036682,48.292404 
z"/>
<path fill="#E4DA4E" opacity="1.000000" stroke="none" 
	d="
M91.600006,1.000000 
	C92.148605,1.600304 92.143646,2.611179 92.470993,2.733623 
	C94.449120,3.473535 96.503242,4.010273 98.695877,4.958891 
	C92.995155,4.100977 87.130508,2.899128 81.132927,1.348639 
	C82.714355,1.000000 84.428719,1.000000 86.661453,1.300797 
	C87.453224,1.401063 87.726608,1.200531 88.000000,1.000000 
	C89.066673,1.000000 90.133339,1.000000 91.600006,1.000000 
z"/>
<path fill="#E6DB56" opacity="1.000000" stroke="none" 
	d="
M151.000000,87.562500 
	C150.216370,89.894379 149.432724,91.788757 148.337875,93.878136 
	C148.492615,89.943138 148.958572,85.813133 149.929932,81.425385 
	C150.623550,81.111755 150.811783,81.055878 151.000000,81.000000 
	C151.000000,83.041664 151.000000,85.083336 151.000000,87.562500 
z"/>
<path fill="#C8B812" opacity="1.000000" stroke="none" 
	d="
M151.000000,80.535355 
	C150.811783,81.055878 150.623550,81.111755 150.146149,81.109680 
	C149.867889,77.684074 149.878845,74.316414 149.852905,70.495285 
	C150.008179,69.140785 150.200348,68.239777 150.696259,67.169380 
	C151.000000,71.356903 151.000000,75.713799 151.000000,80.535355 
z"/>
<path fill="#050401" opacity="1.000000" stroke="none" 
	d="
M87.250000,151.000000 
	C87.426262,150.812775 87.852524,150.625565 88.139389,150.719177 
	C88.000000,151.000000 87.500000,151.000000 87.250000,151.000000 
z"/>
<path fill="#040301" opacity="1.000000" stroke="none" 
	d="
M62.250000,151.000000 
	C61.929371,150.777908 61.858742,150.555801 61.788109,150.333710 
	C62.134731,150.341202 62.481350,150.348709 62.913986,150.678101 
	C63.000000,151.000000 62.500000,151.000000 62.250000,151.000000 
z"/>
<path fill="#040301" opacity="1.000000" stroke="none" 
	d="
M0.999999,89.250000 
	C1.189057,89.430656 1.378116,89.861305 1.283588,90.145981 
	C1.000000,90.000000 1.000000,89.500000 0.999999,89.250000 
z"/>
<path fill="#050401" opacity="1.000000" stroke="none" 
	d="
M87.750000,1.000000 
	C87.726608,1.200531 87.453224,1.401063 87.089920,1.300797 
	C87.000000,1.000000 87.500000,1.000000 87.750000,1.000000 
z"/>
<path fill="#E2D94B" opacity="1.000000" stroke="none" 
	d="
M89.333733,104.746994 
	C72.903053,105.152596 56.473530,105.625137 40.040752,105.909775 
	C36.571934,105.969864 33.091190,105.341637 29.615942,105.030563 
	C29.589575,104.559792 29.563210,104.089012 29.536842,103.618240 
	C30.826159,103.105728 32.115475,102.593216 33.789150,102.352341 
	C34.788967,103.026840 35.404419,103.429703 36.416328,103.965553 
	C38.898613,104.388580 40.981903,104.905479 43.070702,104.928764 
	C51.424274,105.021935 59.779594,104.972343 68.134186,104.948479 
	C69.619087,104.944237 71.108780,104.866226 72.587402,104.727745 
	C77.973076,104.223328 83.355011,103.678818 88.905052,103.388542 
	C89.159081,104.000778 89.246407,104.373886 89.333733,104.746994 
z"/>
<path fill="#362F03" opacity="1.000000" stroke="none" 
	d="
M89.739067,104.764252 
	C89.246407,104.373886 89.159081,104.000778 89.245560,103.311859 
	C90.275925,102.707642 91.132477,102.419243 92.397774,102.106628 
	C100.224930,102.290024 107.643341,102.497635 115.061752,102.705238 
	C117.638115,102.802383 120.214478,102.899529 122.790833,102.996674 
	C122.784935,103.626640 122.779030,104.256615 122.773125,104.886581 
	C111.908417,106.173309 101.052719,108.491722 89.739067,104.764252 
z"/>
<path fill="#E4D94B" opacity="1.000000" stroke="none" 
	d="
M77.267548,91.932671 
	C79.238716,95.149391 78.159897,98.014435 74.645958,97.791077 
	C71.778046,97.608772 68.992813,96.125710 66.170929,95.219391 
	C66.250374,94.454033 66.329819,93.688683 66.409264,92.923325 
	C68.556160,92.699013 70.703056,92.474709 74.032265,92.126869 
	C74.032265,85.020927 74.032265,77.491913 74.236862,69.482262 
	C74.441467,69.001617 74.834457,68.969437 74.912292,69.393585 
	C75.278786,73.333809 75.771568,76.848366 75.797462,80.366371 
	C75.822281,83.737885 75.275566,87.111427 75.215813,90.488251 
	C75.207512,90.957481 76.550247,91.450607 77.267548,91.932671 
z"/>
<path fill="#1C1600" opacity="1.000000" stroke="none" 
	d="
M91.989029,102.130844 
	C91.132477,102.419243 90.275925,102.707642 89.078857,103.072723 
	C83.355011,103.678818 77.973076,104.223328 72.587402,104.727745 
	C71.108780,104.866226 69.619087,104.944237 68.134186,104.948479 
	C59.779594,104.972343 51.424274,105.021935 43.070702,104.928764 
	C40.981903,104.905479 38.898613,104.388580 36.420830,103.729492 
	C36.028873,103.360428 36.024910,102.888130 36.024910,102.888130 
	C40.026665,102.914391 44.028416,102.940651 48.956196,102.977974 
	C52.514717,103.003998 55.152645,103.134010 57.778572,103.009956 
	C63.221291,102.752815 68.657639,102.360695 74.096603,102.024071 
	C74.096603,102.024071 74.525375,101.974213 75.147400,101.924332 
	C77.954430,101.791527 80.139442,101.708611 82.847015,101.730629 
	C84.783745,101.802452 86.197922,101.769341 87.975998,101.675217 
	C89.556282,101.786415 90.772652,101.958626 91.989029,102.130844 
z"/>
<path fill="#E4D94B" opacity="1.000000" stroke="none" 
	d="
M77.933167,42.995338 
	C77.829445,58.451824 77.725716,73.908310 77.334213,89.260376 
	C77.022354,82.272659 77.051201,75.388443 76.932175,68.506783 
	C76.906586,67.027122 76.346779,65.556709 76.031250,63.608337 
	C76.012375,57.909813 75.850822,52.678951 76.068619,47.463928 
	C76.131805,45.951080 77.281532,44.483612 77.933167,42.995338 
z"/>
<path fill="#DCD14D" opacity="1.000000" stroke="none" 
	d="
M82.324455,101.625694 
	C80.139442,101.708611 77.954430,101.791527 75.348045,101.844818 
	C76.672310,101.227753 78.447525,100.059616 80.158791,100.146797 
	C91.552086,100.727257 102.931725,101.576065 114.688774,102.521454 
	C107.643341,102.497635 100.224930,102.290024 92.397774,102.106628 
	C90.772652,101.958626 89.556282,101.786415 87.634613,101.469635 
	C85.394363,101.425278 83.859413,101.525482 82.324455,101.625694 
z"/>
<path fill="#322E0B" opacity="1.000000" stroke="none" 
	d="
M44.601913,70.798203 
	C43.482933,69.659187 42.637451,68.758698 41.034988,67.051994 
	C44.742897,66.808731 47.679489,66.460152 50.590908,66.607857 
	C50.987659,66.627983 51.258648,69.127243 51.587868,70.478653 
	C49.350380,70.664680 47.112896,70.850708 44.601913,70.798203 
z"/>
<path fill="#FCEF59" opacity="1.000000" stroke="none" 
	d="
M77.944778,42.622971 
	C77.281532,44.483612 76.131805,45.951080 76.068619,47.463928 
	C75.850822,52.678951 76.012375,57.909813 75.856331,63.936218 
	C75.400307,66.148338 75.117386,67.558891 74.834457,68.969437 
	C74.834457,68.969437 74.441467,69.001617 74.245300,69.015541 
	C74.036972,60.012936 74.024826,50.996403 74.307480,41.544128 
	C75.705406,40.744522 76.808533,40.380657 77.911659,40.016788 
	C77.926575,40.761395 77.941483,41.505997 77.944778,42.622971 
z"/>
<path fill="#57510D" opacity="1.000000" stroke="none" 
	d="
M74.912292,69.393585 
	C75.117386,67.558891 75.400307,66.148338 75.858139,64.409912 
	C76.346779,65.556709 76.906586,67.027122 76.932175,68.506783 
	C77.051201,75.388443 77.022354,82.272659 77.135925,89.628403 
	C77.191833,90.510796 77.158249,90.920761 77.196106,91.631699 
	C76.550247,91.450607 75.207512,90.957481 75.215813,90.488251 
	C75.275566,87.111427 75.822281,83.737885 75.797462,80.366371 
	C75.771568,76.848366 75.278786,73.333809 74.912292,69.393585 
z"/>
<path fill="#EFE354" opacity="1.000000" stroke="none" 
	d="
M73.755661,101.916260 
	C68.657639,102.360695 63.221291,102.752815 57.778572,103.009956 
	C55.152645,103.134010 52.514717,103.003998 49.411827,102.916534 
	C53.154243,102.242569 57.352676,101.324173 61.584057,101.132278 
	C65.509315,100.954254 69.469757,101.552185 73.755661,101.916260 
z"/>
<path fill="#2C2506" opacity="1.000000" stroke="none" 
	d="
M98.969353,64.819740 
	C100.670311,65.219246 102.371269,65.618752 104.505280,66.401337 
	C104.270874,70.017815 101.954895,70.721893 99.095657,70.592445 
	C99.095657,70.592445 99.108017,70.770988 98.981293,70.515747 
	C98.268440,70.045441 97.682320,69.830368 97.096191,69.615303 
	C97.068306,69.338272 96.937927,69.123444 96.430328,68.581139 
	C96.175385,67.516953 96.195168,66.842430 96.214958,66.167915 
	C96.214958,66.167915 96.127693,66.138145 96.440788,66.156837 
	C97.199615,65.797241 97.645348,65.418953 98.091072,65.040665 
	C98.091072,65.040665 98.020294,65.026901 98.259613,65.000717 
	C98.498932,64.974525 98.969353,64.819740 98.969353,64.819740 
z"/>
<path fill="#E4D94B" opacity="1.000000" stroke="none" 
	d="
M77.911606,39.645569 
	C76.808533,40.380657 75.705406,40.744522 74.316772,41.078621 
	C73.630051,39.060375 73.228836,37.071892 72.827621,35.083408 
	C73.460732,34.758595 74.093849,34.433784 74.726959,34.108974 
	C75.788490,35.830765 76.850014,37.552559 77.911606,39.645569 
z"/>
<path fill="#EEE34C" opacity="1.000000" stroke="none" 
	d="
M99.317764,70.908112 
	C101.954895,70.721893 104.270874,70.017815 104.888138,66.430939 
	C107.153488,68.219727 106.660049,71.029083 103.669579,71.707619 
	C102.395218,71.996765 100.922470,71.411613 99.317764,70.908112 
z"/>
<path fill="#E6DB56" opacity="1.000000" stroke="none" 
	d="
M147.752808,94.190063 
	C147.606598,96.202995 147.136551,98.411514 146.354401,100.824608 
	C146.504517,98.814674 146.966736,96.600166 147.752808,94.190063 
z"/>
<path fill="#E0D64C" opacity="1.000000" stroke="none" 
	d="
M122.448044,133.989685 
	C121.561478,135.080353 120.326683,136.188187 118.783730,137.397583 
	C119.683655,136.335052 120.891731,135.170944 122.448044,133.989685 
z"/>
<path fill="#EEE34C" opacity="1.000000" stroke="none" 
	d="
M95.886475,66.200890 
	C96.195168,66.842430 96.175385,67.516953 96.244957,68.524765 
	C94.218094,68.532829 93.434967,67.813210 95.886475,66.200890 
z"/>
<path fill="#E3DA4F" opacity="1.000000" stroke="none" 
	d="
M39.610916,141.091736 
	C38.517010,140.857681 37.351524,140.266388 36.007191,139.399384 
	C37.065338,139.660614 38.302334,140.197556 39.610916,141.091736 
z"/>
<path fill="#E0D64C" opacity="1.000000" stroke="none" 
	d="
M118.080498,137.464035 
	C117.804192,138.024612 117.200806,138.510147 116.304039,139.026505 
	C116.591576,138.501205 117.172501,137.945099 118.080498,137.464035 
z"/>
<path fill="#373000" opacity="1.000000" stroke="none" 
	d="
M35.910366,102.618752 
	C36.024910,102.888130 36.028873,103.360428 36.024372,103.596497 
	C35.404419,103.429703 34.788967,103.026840 34.142151,102.338181 
	C34.672466,102.151390 35.234142,102.250381 35.910366,102.618752 
z"/>
<path fill="#EEE34C" opacity="1.000000" stroke="none" 
	d="
M97.258568,69.910835 
	C97.682320,69.830368 98.268440,70.045441 99.067421,70.491470 
	C98.660500,70.550400 98.040718,70.378380 97.258568,69.910835 
z"/>
<path fill="#EEE34C" opacity="1.000000" stroke="none" 
	d="
M97.783890,65.072174 
	C97.645348,65.418953 97.199615,65.797241 96.439407,66.202927 
	C96.575531,65.854774 97.026123,65.479225 97.783890,65.072174 
z"/>
<path fill="#E3DA4F" opacity="1.000000" stroke="none" 
	d="
M35.792809,138.927551 
	C35.403584,138.960312 34.855839,138.731705 34.149124,138.244278 
	C34.538197,138.212372 35.086243,138.439285 35.792809,138.927551 
z"/>
<path fill="#E0D64C" opacity="1.000000" stroke="none" 
	d="
M115.752701,139.042938 
	C115.604782,139.398315 115.145111,139.771851 114.381546,140.186890 
	C114.532089,139.839294 114.986519,139.450195 115.752701,139.042938 
z"/>
<path fill="#E3DA4F" opacity="1.000000" stroke="none" 
	d="
M33.877548,137.786911 
	C33.694633,137.868347 33.370613,137.735397 32.947105,137.348190 
	C33.143894,137.253464 33.440163,137.412994 33.877548,137.786911 
z"/>
<path fill="#EEE34C" opacity="1.000000" stroke="none" 
	d="
M98.841103,64.729370 
	C98.969353,64.819740 98.498932,64.974525 98.258698,65.036751 
	C98.132004,64.740456 98.363464,64.587135 98.841103,64.729370 
z"/>
<path fill="#362F03" opacity="1.000000" stroke="none" 
	d="
M82.847015,101.730629 
	C83.859413,101.525482 85.394363,101.425278 87.270706,101.530655 
	C86.197922,101.769341 84.783745,101.802452 82.847015,101.730629 
z"/>
</svg>